<svg xmlns="http://www.w3.org/2000/svg" xmlns:xlink="http://www.w3.org/1999/xlink" width="50.01" height="33.878" viewBox="0 0 50.01 33.878">
  <defs>
    <clipPath id="clip-iPhone_X_XS_11_Pro_2">
      <rect width="50.01" height="33.878"/>
    </clipPath>
  </defs>
  <g id="iPhone_X_XS_11_Pro_2" data-name="iPhone X/XS/11 Pro – 2" clip-path="url(#clip-iPhone_X_XS_11_Pro_2)">
    <g id="Group_1" data-name="Group 1" transform="translate(0.003 -8.041)">
      <path id="Path_1" data-name="Path 1" d="M24.74,39.94a35.694,35.694,0,0,1-23.2-8.41c-.42-.34-.81-.71-1.21-1.07-.21-.19-.46-.41-.26-.7s.5-.12.74.02a46.851,46.851,0,0,0,9.82,4.35,49.045,49.045,0,0,0,8.71,1.9,45.932,45.932,0,0,0,7.22.39,48.712,48.712,0,0,0,17.28-3.75c.18-.07.36-.15.54-.22a.762.762,0,0,1,.95.26.734.734,0,0,1-.29.94c-.97.65-1.93,1.34-2.95,1.91a34.852,34.852,0,0,1-11.74,3.96A28.489,28.489,0,0,1,24.74,39.94Z" fill="#f90"/>
      <path id="Path_2" data-name="Path 2" d="M21.43,22.08c.29-1.22.58-2.43.86-3.65.55-2.35,1.11-4.7,1.66-7.05.18-.76.35-.9,1.15-.9.39,0,.77-.01,1.16,0,.67.02.85.15,1.01.81.58,2.43,1.15,4.86,1.73,7.29.29,1.22.58,2.44.95,3.68a3.662,3.662,0,0,0,.13-.44q1.335-5.175,2.67-10.34c.23-.88.38-1,1.29-1,.39,0,.77-.01,1.16,0,.44.01.57.16.5.6a2.6,2.6,0,0,1-.1.4q-2.01,6.42-4.02,12.83c-.24.76-.39.87-1.19.87H29.27c-.74-.01-.92-.15-1.09-.86q-.96-3.9-1.9-7.8c-.22-.91-.44-1.82-.74-2.73-.2.8-.39,1.6-.59,2.41-.64,2.68-1.28,5.37-1.92,8.05-.19.8-.37.94-1.2.94h-.99c-.84,0-1-.12-1.25-.91l-2.67-8.79c-.42-1.39-.85-2.77-1.25-4.16-.21-.7-.09-.84.63-.85h1.24c.66.01.86.15,1.03.79.48,1.83.94,3.66,1.41,5.49q.63,2.49,1.26,4.97c.03.12.07.23.11.35Z" fill="#fff"/>
      <path id="Path_3" data-name="Path 3" d="M11.33,16.94a25.738,25.738,0,0,0-.26-2.7c-.24-1.19-1.13-1.78-2.54-1.9a9.648,9.648,0,0,0-4.44.78c-1,.4-1.06.33-1.12-.74a1.3,1.3,0,0,1,.94-1.44,11.065,11.065,0,0,1,6.12-.75,4.3,4.3,0,0,1,3.87,4.28c.09,2,.08,4,.06,6.01a5.76,5.76,0,0,0,.71,3.02c.24.43.18.63-.21.91-.33.23-.66.45-1,.66a.657.657,0,0,1-.96-.13c-.39-.51-.74-1.06-1.13-1.64-.12.13-.26.29-.41.44a6.064,6.064,0,0,1-5.68,1.67,4.052,4.052,0,0,1-3.24-4.8,4.584,4.584,0,0,1,4.24-4.03,13.23,13.23,0,0,1,4.48.29c.11.02.22.05.32.07A1.664,1.664,0,0,0,11.33,16.94Zm-.08,1.88a10.481,10.481,0,0,0-4.24-.27,2.468,2.468,0,0,0-2.07,3.31A1.826,1.826,0,0,0,6.38,23.3a4.355,4.355,0,0,0,3.74-.88C11.29,21.48,11.28,20.17,11.25,18.82Z" fill="#fff"/>
      <path id="Path_4" data-name="Path 4" d="M41.88,25.62a11.151,11.151,0,0,1-4.02-.79,1.632,1.632,0,0,1-.94-2.17c.14-.37.42-.28.69-.19.71.24,1.4.52,2.12.7a7.474,7.474,0,0,0,3.61.06,2.094,2.094,0,0,0,1.69-1.42,1.633,1.633,0,0,0-.78-1.99,12.19,12.19,0,0,0-1.75-.73c-.78-.28-1.58-.49-2.36-.76A4.376,4.376,0,0,1,37.42,16a3.9,3.9,0,0,1,1.36-4.85,6.187,6.187,0,0,1,4.37-1.06,13.922,13.922,0,0,1,2.78.6,1.514,1.514,0,0,1,1.04,2.13c-.11.35-.37.3-.64.21-.67-.22-1.33-.48-2.01-.63a6.547,6.547,0,0,0-3.08.04,1.712,1.712,0,0,0-1.46,1.79,1.541,1.541,0,0,0,.82,1.4,10.793,10.793,0,0,0,1.59.7c.99.35,2,.63,2.98,1.01a3.7,3.7,0,0,1,2.64,3.34,4.131,4.131,0,0,1-2.09,4A7.25,7.25,0,0,1,41.88,25.62Z" fill="#fff"/>
      <path id="Path_5" data-name="Path 5" d="M44.86,30.6c-1.12.1-2.34.22-3.56.31a2.654,2.654,0,0,1-.55-.1c.11-.17.18-.41.33-.51a7.854,7.854,0,0,1,2.97-1.2,11.891,11.891,0,0,1,4.68-.04.936.936,0,0,1,.16.04c1,.26,1.19.59,1.09,1.64a11.267,11.267,0,0,1-2.05,5.65,10.155,10.155,0,0,1-1.17,1.28,1.49,1.49,0,0,1-.55.19,2.16,2.16,0,0,1,.01-.57c.46-1.43.95-2.85,1.42-4.28a3.575,3.575,0,0,0,.1-.57c.18-1.05-.19-1.57-1.26-1.71C45.98,30.67,45.47,30.65,44.86,30.6Z" fill="#f90"/>
    </g>
  </g>
</svg>
