<?xml version="1.0" encoding="utf-8"?>
<svg viewBox="189.542 175.842 143.087 91.742" xmlns="http://www.w3.org/2000/svg">
  <g transform="matrix(7.154815, 0, 0, 6.66727, 186.536911, 170.841263)" style="">
    <path class="st0" d="M20.14,6.97l-5.95-5.95c-0.36-0.36-0.95-0.36-1.32,0c-0.36,0.36-0.36,0.95,0,1.32l4.36,4.36H1.35 c-0.51,0-0.93,0.42-0.93,0.93c0,0.51,0.42,0.93,0.93,0.93h15.89l-4.36,4.36c-0.36,0.36-0.36,0.95,0,1.32 c0.18,0.18,0.42,0.27,0.66,0.27s0.48-0.09,0.66-0.27l5.95-5.95C20.51,7.92,20.51,7.33,20.14,6.97z" style="fill: rgb(0, 151, 204);"/>
  </g>
</svg>