<?xml version="1.0" encoding="utf-8"?>
<!-- Generator: Adobe Illustrator 24.0.0, SVG Export Plug-In . SVG Version: 6.00 Build 0)  -->
<svg version="1.1" id="Layer_1" xmlns="http://www.w3.org/2000/svg" xmlns:xlink="http://www.w3.org/1999/xlink" x="0px" y="0px"
	 viewBox="0 0 50 50" style="enable-background:new 0 0 50 50;" xml:space="preserve">
<style type="text/css">
	.st0{fill:#FFFFFF;}
	.st1{fill:#FF9F00;}
</style>
<g>
	<path class="st0" d="M821.91-506.44c0,4.27-0.09,7.04,0.02,9.8c0.14,3.37-1.56,3.68-5.92,3.68c-5.54,0-6.97-0.02-16.24-0.02
		c-4.45,0-6.17-0.35-5.94-3.69c0.07-0.99,0.01-2,0.01-3c0-69.15,0-138.29,0-207.44c0-6.84,0.01-6.84,6.82-6.84
		c5.33,0,10.67,0.24,15.99-0.08c4.27-0.25,5.36,1.43,5.34,5.49c-0.13,32.16-0.07,64.32-0.07,96.47c0,1.97,0,3.93,0,6.93
		c1.81-1.13,3.98-2.55,4.14-2.7c27.68-26.84,74.74-17.84,90.99,22.39c10.83,26.79,5.88,63.43-17.45,83.09
		c-20.04,16.89-49.79,17.83-70.49,1.54C827.16-502.35,825.22-503.86,821.91-506.44z M893.93-558.55c-0.64-3.01-1.4-9.16-3.3-14.94
		c-4.98-15.14-18.09-24.4-33.56-24.35c-15.68,0.05-29.04,9.66-34.12,24.52c-3.08,9.01-3.34,18.14-1.98,27.55
		c3.65,25.21,30.74,39.76,52.76,27.56C888-526.11,893.59-539.51,893.93-558.55z"/>
	<path class="st0" d="M491.31-623.47c38.77-0.68,69.27,33.83,67.83,71.53c-1.38,36.24-32.38,67.28-71.17,65.75
		c-34.52-1.37-67.87-29.85-66.21-71.32C423.34-596.86,456.27-624.57,491.31-623.47z M490.22-517.9
		c20.69,0.06,37.4-16.36,37.43-36.78c0.02-19.69-16.71-36.48-36.56-36.68c-20.09-0.2-36.99,16.27-37.05,36.11
		C453.99-534.53,470.04-517.96,490.22-517.9z"/>
	<path class="st0" d="M734.78-615.88c-0.18-3.94,2.03-3.77,7.11-3.77c5.21,0,9.81-0.11,14.99-0.11c4.75,0,6.11,0.48,6.11,4
		c-0.05,39.66-0.06,79.33,0,118.99c0,3.1-1.29,4.07-4.21,4.02c-6.54-0.12-13.08-0.12-19.63,0.03c-3.49,0.08-4.64-1.4-4.38-4.74
		c0.18-2.44,0.04-4.9,0.04-8.61c-2.44,1.64-3.98,2.47-5.28,3.58c-31.69,26.84-79.49,11.99-91.54-29.75
		c-6.98-24.21-5.29-47.89,10.81-68.84c19.95-25.97,56.23-29.4,80.81-7.71c1.72,1.52,3.49,2.98,5.21,4.51
		C734.76-608.15,734.96-612.02,734.78-615.88z M734.74-542.08c2.59-10.04,2.13-20.63-1.03-30.51c-0.53-1.65-1.14-3.31-1.87-4.93
		c-10.55-23.27-41.19-27.65-58.19-8.6c-10.5,11.76-12.05,25.76-9.63,40.73c4.1,25.3,30.02,39.06,52.59,27.21
		C726.55-523.4,731.99-531.41,734.74-542.08z"/>
	<path class="st0" d="M413.57-526.37c5.16,7.46,10.33,14.93,15.48,22.37c0.64,0.92,0.5,2.17-0.31,2.94
		c-17.31,16.43-54.93,23.86-83.05,1.9c-34-26.56-36-70.54-11.6-100c26.74-32.29,71.28-29.48,94.96-9.37
		c0.84,0.71,1.01,1.95,0.43,2.89c-4.79,7.73-9.64,15.55-14.66,23.65c-0.73,1.18-2.34,1.43-3.39,0.53
		c-9.04-7.75-19.15-11.33-31.03-9.24c-8.25,1.45-15.57,4.81-21.2,11.16c-12.77,14.38-12.93,34.85-0.51,49.15
		c12.9,14.85,31.12,16.09,51.86,3.38C411.56-527.65,412.89-527.35,413.57-526.37z"/>
	<path class="st0" d="M609.88-603.33c0,34.82-0.09,69.64,0.1,104.46c0.03,5-1.44,6.61-6.71,6.13c-5.56-0.5-11.15-0.31-16.73,0
		c-3.95,0.22-5.26-1.28-5.13-4.97c0.18-5.32,0.04-10.66,0.04-15.99c0-64.31,0-128.61,0-192.92c0-7.34,0.01-7.34,7.44-7.34
		c5.33,0,10.68,0.27,15.98-0.08c4.64-0.31,5.07,2.04,5.06,5.76C609.84-673.3,609.88-638.31,609.88-603.33z"/>
</g>
<g>
	<g>
		<path class="st1" d="M41.68,32.72c0,0.35-0.01,0.58,0,0.81c0.01,0.28-0.13,0.3-0.49,0.3c-0.46,0-0.58,0-1.34,0
			c-0.37,0-0.51-0.03-0.49-0.31c0.01-0.08,0-0.17,0-0.25c0-5.72,0-11.43,0-17.15c0-0.57,0-0.57,0.56-0.57
			c0.44,0,0.88,0.02,1.32-0.01c0.35-0.02,0.44,0.12,0.44,0.45c-0.01,2.66-0.01,5.32-0.01,7.98c0,0.16-0.01,0.38-0.01,0.63
			c0.15-0.13,0.33-0.26,0.35-0.28c2.29-2.22,6.18-1.47,7.52,1.85c0.9,2.21,0.49,5.24-1.44,6.87c-1.66,1.4-4.12,1.47-5.83,0.13
			C42.12,33.05,41.96,32.93,41.68,32.72z M47.64,28.41c-0.05-0.25-0.12-0.76-0.27-1.23c-0.41-1.25-1.5-2.02-2.77-2.01
			c-1.3,0-2.4,0.8-2.82,2.03c-0.25,0.75-0.28,1.5-0.16,2.28c0.3,2.08,2.54,3.29,4.36,2.28C47.15,31.09,47.61,29.98,47.64,28.41z"/>
		<path class="st1" d="M14.35,23.04c3.21-0.06,5.73,2.8,5.61,5.91c-0.11,3-2.68,5.56-5.88,5.44c-2.85-0.11-5.61-2.47-5.47-5.9
			C8.73,25.24,11.46,22.95,14.35,23.04z M14.26,31.77c1.71,0.01,3.09-1.35,3.09-3.04c0-1.63-1.38-3.02-3.02-3.03
			c-1.66-0.02-3.06,1.35-3.06,2.99C11.27,30.39,12.59,31.76,14.26,31.77z"/>
		<path class="st1" d="M34.48,23.67c-0.01-0.33,0.17-0.31,0.59-0.31c0.43,0,0.81-0.01,1.24-0.01c0.39,0,0.51,0.04,0.51,0.33
			c0,3.28,0,6.56,0,9.84c0,0.26-0.11,0.34-0.35,0.33c-0.54-0.01-1.08-0.01-1.62,0c-0.29,0.01-0.38-0.12-0.36-0.39
			c0.02-0.2,0-0.41,0-0.71c-0.2,0.14-0.33,0.2-0.44,0.3c-2.62,2.22-6.57,0.99-7.57-2.46c-0.58-2-0.44-3.96,0.89-5.69
			c1.65-2.15,4.65-2.43,6.68-0.64c0.14,0.13,0.29,0.25,0.43,0.37C34.48,24.31,34.49,23.99,34.48,23.67z M34.48,29.77
			c0.21-0.83,0.18-1.71-0.08-2.52c-0.04-0.14-0.09-0.27-0.15-0.41c-0.87-1.92-3.4-2.29-4.81-0.71c-0.87,0.97-1,2.13-0.8,3.37
			c0.34,2.09,2.48,3.23,4.35,2.25C33.8,31.32,34.25,30.65,34.48,29.77z"/>
		<path class="st1" d="M7.93,31.07c0.43,0.62,0.85,1.23,1.28,1.85C9.26,33,9.25,33.1,9.18,33.16c-1.43,1.36-4.54,1.97-6.87,0.16
			c-2.81-2.2-2.98-5.83-0.96-8.27c2.21-2.67,5.89-2.44,7.85-0.77c0.07,0.06,0.08,0.16,0.04,0.24c-0.4,0.64-0.8,1.29-1.21,1.95
			c-0.06,0.1-0.19,0.12-0.28,0.04C7,25.87,6.17,25.58,5.18,25.75c-0.68,0.12-1.29,0.4-1.75,0.92c-1.06,1.19-1.07,2.88-0.04,4.06
			c1.07,1.23,2.57,1.33,4.29,0.28C7.76,30.96,7.87,30.99,7.93,31.07z"/>
		<path class="st1" d="M24.15,24.71c0,2.88-0.01,5.76,0.01,8.64c0,0.41-0.12,0.55-0.55,0.51c-0.46-0.04-0.92-0.03-1.38,0
			c-0.33,0.02-0.43-0.11-0.42-0.41c0.01-0.44,0-0.88,0-1.32c0-5.32,0-10.63,0-15.95c0-0.61,0-0.61,0.61-0.61
			c0.44,0,0.88,0.02,1.32-0.01c0.38-0.03,0.42,0.17,0.42,0.48C24.15,18.92,24.15,21.82,24.15,24.71z"/>
	</g>
</g>
</svg>
