<?xml version="1.0" encoding="utf-8"?>
<!-- Generator: Adobe Illustrator 24.0.0, SVG Export Plug-In . SVG Version: 6.00 Build 0)  -->
<svg version="1.1" id="Layer_1" xmlns="http://www.w3.org/2000/svg" xmlns:xlink="http://www.w3.org/1999/xlink" x="0px" y="0px"
	 viewBox="0 0 50 50" style="enable-background:new 0 0 50 50;" xml:space="preserve">
<style type="text/css">
	.st0{fill:#D00000;}
	.st1{fill:#FFFFFF;}
</style>
<g>
	<path class="st0" d="M50,49.58c-16.69,0-33.31,0-50,0C0,33.19,0,16.83,0,0.42c16.66,0,33.3,0,50,0C50,16.78,50,33.15,50,49.58z
		 M22.56,25.02c0.2,0.27,0.34,0.44,0.46,0.62c2.93,4.35,5.85,8.71,8.8,13.05c0.17,0.25,0.56,0.47,0.87,0.49
		c0.95,0.06,1.9,0.06,2.85,0c0.28-0.02,0.65-0.21,0.79-0.44c0.11-0.18,0.01-0.6-0.13-0.82c-2.73-3.99-5.47-7.96-8.22-11.94
		c-0.87-1.26-1.71-2.49-2.66-3.87c0.37-0.31,0.7-0.62,1.01-0.93c3.03-3.01,6.05-6.03,9.08-9.04c0.25-0.25,0.54-0.52,0.24-0.86
		c-0.19-0.21-0.52-0.39-0.8-0.4c-0.97-0.05-1.95-0.05-2.93,0c-0.32,0.02-0.72,0.18-0.94,0.41c-3.51,3.49-7,7.01-10.49,10.52
		c-0.69,0.7-1.4,1.38-2.26,2.22c0-0.49,0-0.75,0-1.01c0-3.61,0-7.23,0-10.84c0-1.22-0.1-1.32-1.35-1.32c-0.46,0-0.93,0-1.39,0
		c-1.03,0-1.2,0.16-1.2,1.18c0,4.74,0,9.47,0,14.21c0,3.96,0,7.91,0,11.87c0,0.79,0.26,1.05,1.04,1.06c0.54,0.01,1.07,0,1.61,0
		c1.11,0,1.29-0.17,1.29-1.26c0-2.69-0.01-5.37,0.01-8.06c0-0.27,0.04-0.63,0.21-0.81C19.79,27.72,21.15,26.4,22.56,25.02z"/>
	<path class="st1" d="M22.56,25.02c-1.41,1.38-2.78,2.7-4.11,4.05c-0.17,0.17-0.2,0.53-0.21,0.81c-0.01,2.69-0.01,5.37-0.01,8.06
		c0,1.08-0.18,1.26-1.29,1.26c-0.54,0-1.07,0.01-1.61,0c-0.78-0.01-1.04-0.27-1.04-1.06c0-3.96,0-7.91,0-11.87
		c0-4.74,0-9.47,0-14.21c0-1.02,0.17-1.18,1.2-1.18c0.46,0,0.93,0,1.39,0c1.25,0,1.35,0.1,1.35,1.32c0,3.61,0,7.23,0,10.84
		c0,0.26,0,0.52,0,1.01c0.86-0.84,1.56-1.52,2.26-2.22c3.5-3.51,6.98-7.03,10.49-10.52c0.23-0.23,0.62-0.39,0.94-0.41
		c0.97-0.05,1.95-0.05,2.93,0c0.28,0.01,0.61,0.19,0.8,0.4c0.3,0.34,0.01,0.6-0.24,0.86c-3.03,3.01-6.05,6.03-9.08,9.04
		c-0.35,0.32-0.64,0.61-1.01,0.93c0.95,1.38,1.79,2.61,2.66,3.87c2.74,3.98,5.49,7.95,8.22,11.94c0.15,0.22,0.24,0.63,0.13,0.82
		c-0.14,0.23-0.51,0.42-0.79,0.44c-0.95,0.05-1.91,0.06-2.85,0c-0.3-0.02-0.7-0.24-0.87-0.49c-2.95-4.34-5.87-8.7-8.8-13.05
		C22.9,25.46,22.76,25.29,22.56,25.02z"/>
</g>
</svg>
