<?xml version="1.0" encoding="utf-8"?>
<!-- Generator: Adobe Illustrator 24.0.0, SVG Export Plug-In . SVG Version: 6.00 Build 0)  -->
<svg version="1.1" id="Layer_1" xmlns="http://www.w3.org/2000/svg" xmlns:xlink="http://www.w3.org/1999/xlink" x="0px" y="0px"
	 viewBox="0 0 24 24" style="enable-background:new 0 0 24 24;" xml:space="preserve">
<style type="text/css">
	.st0{fill:#336EE5;}
</style>
<title></title>
<path class="st0" d="M10.2,14.3L10.2,14.3l-1,2.4c-1-0.6-1.7-1.5-2.1-2.6l2.6-0.4l0,0c0.2,0,0.5,0.1,0.5,0.4
	C10.2,14.2,10.2,14.3,10.2,14.3L10.2,14.3z M9.4,12.2c0.2-0.1,0.4-0.3,0.3-0.5c0-0.1-0.1-0.2-0.1-0.2l0,0l-2-1.8
	c-0.6,1-0.9,2.1-0.7,3.3L9.4,12.2C9.4,12.2,9.4,12.2,9.4,12.2z M10.5,10.2c0.2,0.1,0.5,0.1,0.6-0.1c0.1-0.1,0.1-0.2,0.1-0.2l0,0
	l0.1-2.6c-1.1,0.1-2.2,0.6-3,1.4L10.5,10.2L10.5,10.2L10.5,10.2z M11.3,13l0.7,0.3l0.7-0.3l0.2-0.8l-0.5-0.6h-0.8l-0.5,0.6L11.3,13
	L11.3,13z M12.8,9.9c0,0.2,0.2,0.4,0.5,0.4c0.1,0,0.2,0,0.2-0.1l0,0l2.1-1.5c-0.8-0.8-1.9-1.3-3-1.4L12.8,9.9
	C12.8,9.9,12.8,9.9,12.8,9.9z M23.7,15.9L17.9,23c-0.3,0.4-0.8,0.6-1.2,0.6l-9.3,0c-0.5,0-0.9-0.2-1.2-0.6l-5.8-7.2
	C0,15.5-0.1,15,0,14.5l2.1-9C2.2,5.1,2.5,4.7,3,4.5l8.3-4c0.4-0.2,0.9-0.2,1.4,0l8.3,4c0.4,0.2,0.8,0.6,0.9,1.1l2.1,9
	C24.1,15,24,15.5,23.7,15.9z M20.4,13.8c0,0-0.1,0-0.1,0c-0.2,0-0.3,0-0.5,0c-0.4,0-0.6-0.1-0.9-0.1c-0.1,0-0.2-0.2-0.2-0.2
	l-0.2-0.1c0.1-0.8,0.1-1.6-0.1-2.3c-0.2-0.8-0.5-1.5-0.9-2.2c0.1,0,0.1-0.1,0.2-0.2c0-0.1,0-0.2,0.1-0.3c0.2-0.2,0.4-0.3,0.7-0.5
	c0.1-0.1,0.3-0.1,0.4-0.2c0,0,0.1-0.1,0.1-0.1C19.2,7.3,19.2,7,19,6.8s-0.5-0.2-0.7,0c0,0-0.1,0.1-0.1,0.1c-0.1,0.1-0.2,0.2-0.3,0.3
	c-0.2,0.3-0.5,0.5-0.7,0.6c-0.1,0.1-0.2,0-0.3,0L16.7,8c-1.1-1.1-2.6-1.9-4.1-2l0-0.2c-0.1-0.1-0.1-0.1-0.2-0.3c0-0.3,0-0.6,0.1-0.9
	c0-0.2,0.1-0.3,0.1-0.5c0,0,0-0.1,0-0.1c0-0.3-0.2-0.6-0.5-0.6c-0.3,0-0.5,0.2-0.5,0.6l0,0c0,0,0,0.1,0,0.1c0,0.2,0,0.3,0.1,0.5
	c0,0.3,0.1,0.6,0.1,0.9c0,0.1-0.1,0.2-0.2,0.3l0,0.2C9.9,6.1,8.4,6.8,7.3,8c-0.1,0-0.1-0.1-0.2-0.1c-0.1,0-0.2,0-0.3,0
	C6.6,7.6,6.4,7.4,6.1,7.2C6,7.1,5.9,7,5.8,6.8c0,0-0.1-0.1-0.1-0.1C5.6,6.7,5.5,6.6,5.3,6.6C5.2,6.6,5,6.7,4.9,6.8
	C4.8,7,4.8,7.3,5.1,7.5l0,0l0.1,0.1c0.1,0.1,0.3,0.2,0.4,0.2C5.9,8,6.1,8.2,6.3,8.4c0.1,0.1,0.1,0.2,0.1,0.3l0.2,0.1
	c-0.9,1.3-1.2,2.9-1,4.5l-0.2,0.1c-0.1,0.1-0.1,0.2-0.2,0.2c-0.3,0.1-0.5,0.1-0.9,0.1c-0.2,0-0.3,0-0.5,0c0,0-0.1,0-0.1,0l0,0l0,0
	c-0.3,0.1-0.5,0.3-0.4,0.6c0.1,0.3,0.3,0.4,0.6,0.4l0,0l0,0l0.1,0c0.2,0,0.3-0.1,0.4-0.2c0.3-0.1,0.6-0.2,0.9-0.3
	c0.1,0,0.2,0.1,0.3,0.1l0.2,0c0.5,1.5,1.5,2.8,2.9,3.6l-0.1,0.2c0,0.1,0.1,0.2,0,0.3c-0.1,0.3-0.3,0.5-0.5,0.8
	c-0.1,0.1-0.2,0.2-0.3,0.4c0,0,0,0.1-0.1,0.1c-0.1,0.3,0,0.6,0.2,0.7c0.2,0.1,0.6,0,0.7-0.3v0c0,0,0-0.1,0.1-0.1
	C8.9,20,8.9,19.8,9,19.7c0.1-0.3,0.2-0.7,0.4-0.9c0.1-0.1,0.1-0.1,0.2-0.1l0.1-0.2c1.5,0.6,3.1,0.6,4.6,0l0.1,0.2
	c0.1,0,0.2,0,0.3,0.2c0.1,0.2,0.2,0.5,0.3,0.8c0.1,0.2,0.1,0.3,0.1,0.5c0,0,0,0.1,0.1,0.1c0.1,0.3,0.4,0.4,0.7,0.3
	c0.2-0.1,0.3-0.4,0.2-0.7c0,0,0-0.1-0.1-0.1c-0.1-0.2-0.2-0.3-0.3-0.4c-0.2-0.3-0.3-0.5-0.4-0.8c0-0.1,0-0.2,0-0.3
	c0,0-0.1-0.1-0.1-0.2c1.4-0.8,2.4-2.1,2.9-3.6c0.1,0,0.2,0,0.2,0c0.1-0.1,0.1-0.1,0.3-0.1c0.3,0,0.5,0.1,0.9,0.3
	c0.2,0.1,0.3,0.1,0.4,0.2c0,0,0.1,0,0.1,0l0,0l0,0c0.3,0.1,0.6-0.1,0.6-0.4C20.8,14.2,20.7,13.9,20.4,13.8z M16.4,9.7l-1.9,1.7v0
	c-0.2,0.2-0.2,0.4,0,0.6c0.1,0.1,0.1,0.1,0.2,0.1l0,0l2.5,0.7c0.1-0.6,0-1.1-0.1-1.7C16.9,10.7,16.7,10.2,16.4,9.7L16.4,9.7z
	 M12.4,15c-0.1-0.1-0.2-0.2-0.4-0.2c-0.2,0-0.3,0.1-0.4,0.2h0l-1.3,2.3c1.1,0.4,2.2,0.4,3.3,0L12.4,15C12.4,15,12.4,15,12.4,15z
	 M14.3,13.7c-0.1,0-0.2,0-0.3,0c-0.2,0.1-0.3,0.4-0.2,0.6l0,0l1,2.4c1-0.6,1.7-1.5,2.1-2.6L14.3,13.7L14.3,13.7z"/>
</svg>
