<?xml version="1.0" encoding="utf-8"?>
<!-- Generator: Adobe Illustrator 24.0.0, SVG Export Plug-In . SVG Version: 6.00 Build 0)  -->
<svg version="1.1" id="Layer_1" xmlns="http://www.w3.org/2000/svg" xmlns:xlink="http://www.w3.org/1999/xlink" x="0px" y="0px"
	 viewBox="0 0 50 50" style="enable-background:new 0 0 50 50;" xml:space="preserve">
<style type="text/css">
	.st0{fill:#F05732;}
	.st1{fill:#9E529F;}
</style>
<g>
	<path class="st0" d="M40.46,34.2c-0.01,3.35-0.76,6.49-2.63,9.27c-2.23,3.31-5.44,5.24-9.29,6.12c-4.01,0.91-7.82,0.31-11.39-1.7
		c-3.21-1.81-5.57-4.43-6.82-7.92c-0.98-2.74-1.04-5.58-0.3-8.39c0.54-2.04,1.25-4.04,1.92-6.05c1.69-5.11,3.38-10.23,5.12-15.32
		c0.62-1.81,1.36-3.59,2.06-5.37c0.09-0.22,0.21-0.44,0.34-0.63c0.39-0.58,1.01-0.64,1.39-0.06c0.49,0.76,0.98,1.57,1.26,2.42
		c0.77,2.34,1.39,4.73,2.13,7.08c0.55,1.74,0.99,3.53,2.04,5.08c1.11,1.64,2.45,1.79,3.76,0.3c0.71-0.81,1.28-1.76,1.81-2.71
		c0.93-1.64,1.3-1.73,2.51-0.33c1.91,2.22,3.15,4.83,4.02,7.59c0.65,2.07,1.18,4.2,1.61,6.33C40.3,31.31,40.32,32.76,40.46,34.2z
		 M33.36,35.21c0.09-3.44-2.23-7.2-5.72-8.34c-2.36-0.77-4.65-0.65-6.75,0.62c-3.46,2.09-4.79,5.27-4.28,9.25
		c0.5,3.89,4.18,7.2,8.09,7.28C29.42,44.11,33.36,40.11,33.36,35.21z"/>
	<path class="st1" d="M32.09,4.32c-0.01,1.48-1.02,2.53-2.2,2.48c-1.29-0.06-2.32-1.23-2.14-2.57c0.2-1.48,0.84-2.79,1.77-3.96
		c0.2-0.25,0.42-0.43,0.69-0.09C31.22,1.46,31.84,2.9,32.09,4.32z"/>
</g>
</svg>
