<?xml version="1.0" encoding="utf-8"?>
<!-- Generator: Adobe Illustrator 23.1.0, SVG Export Plug-In . SVG Version: 6.00 Build 0)  -->
<svg version="1.1" id="Layer_1" xmlns="http://www.w3.org/2000/svg" xmlns:xlink="http://www.w3.org/1999/xlink" x="0px" y="0px"
	 viewBox="0 0 21.27 15.06" style="enable-background:new 0 0 21.27 15.06;" xml:space="preserve">
<style type="text/css">
	.st0{fill:#F05B72;}
</style>
<g>
	<path class="st0" d="M20.14,6.97l-5.95-5.95c-0.36-0.36-0.95-0.36-1.32,0c-0.36,0.36-0.36,0.95,0,1.32l4.36,4.36H1.35
		c-0.51,0-0.93,0.42-0.93,0.93c0,0.51,0.42,0.93,0.93,0.93h15.89l-4.36,4.36c-0.36,0.36-0.36,0.95,0,1.32
		c0.18,0.18,0.42,0.27,0.66,0.27s0.48-0.09,0.66-0.27l5.95-5.95C20.51,7.92,20.51,7.33,20.14,6.97z"/>
</g>
</svg>
