<?xml version="1.0" encoding="utf-8"?>
<!-- Generator: Adobe Illustrator 24.0.0, SVG Export Plug-In . SVG Version: 6.00 Build 0)  -->
<svg version="1.1" id="Layer_1" xmlns="http://www.w3.org/2000/svg" xmlns:xlink="http://www.w3.org/1999/xlink" x="0px" y="0px"
	 viewBox="0 0 50 50" style="enable-background:new 0 0 50 50;" xml:space="preserve">
<style type="text/css">
	.st0{fill:#F6BD3A;}
	.st1{fill:#E35A2B;}
	.st2{fill:#EB8C23;}
	.st3{fill:none;}
</style>
<g>
	<polygon class="st0" points="4.85,11.51 25.09,0 45.15,11.43 38.42,15.36 25.12,7.68 11.59,15.36 	"/>
	<polygon class="st1" points="4.85,11.51 11.59,15.36 11.59,23.06 4.85,19.03 	"/>
	<polygon class="st2" points="11.59,15.36 25.12,7.68 25.12,23 18.31,26.93 18.31,19.33 11.59,23.06 	"/>
	<path class="st3" d="M25.12,7.68"/>
	<polygon class="st1" points="25.12,7.68 25.12,15.36 38.51,23 38.42,15.36 	"/>
	<polygon class="st2" points="38.42,15.36 45.15,11.43 45.15,19.06 38.51,23 	"/>
	<polygon class="st1" points="11.59,23.06 11.59,45.92 18.35,50 18.35,34.82 25.09,38.41 25.09,30.66 18.31,26.93 18.31,19.33 	"/>
	<polygon class="st0" points="18.31,26.93 25.12,23 31.74,26.91 25.09,30.66 	"/>
	<polygon class="st2" points="25.09,30.66 31.74,26.91 31.74,34.6 25.09,38.41 	"/>
	<polygon class="st2" points="18.35,34.82 25.09,38.41 25.09,46.05 18.35,50 	"/>
</g>
</svg>
